<svg width="900" height="420" viewBox="0 0 900 420" xmlns="http://www.w3.org/2000/svg">
  <rect x="60" y="70" width="780" height="260" rx="42" fill="{{MACHINE_FILL}}" opacity="0.14" stroke="#243746" stroke-width="3"/>
  <rect x="145" y="150" width="235" height="90" rx="24" fill="#F8F9FA" stroke="{{ENGINE_STROKE}}" stroke-width="{{ENGINE_WIDTH}}"/>
  <text x="262" y="203" text-anchor="middle" font-size="24" font-family="Arial" fill="#243746">Engine</text>

  <rect x="420" y="110" width="110" height="70" rx="18" fill="#F8F9FA" stroke="{{PUMP_STROKE}}" stroke-width="{{PUMP_WIDTH}}"/>
  <text x="475" y="153" text-anchor="middle" font-size="22" font-family="Arial" fill="#243746">Pump</text>

  <circle cx="610" cy="195" r="44" fill="#F8F9FA" stroke="{{BEARINGS_STROKE}}" stroke-width="{{BEARINGS_WIDTH}}"/>
  <text x="610" y="202" text-anchor="middle" font-size="18" font-family="Arial" fill="#243746">Bearings</text>

  <rect x="420" y="210" width="145" height="82" rx="18" fill="#F8F9FA" stroke="{{SENSORS_STROKE}}" stroke-width="{{SENSORS_WIDTH}}"/>
  <text x="492" y="257" text-anchor="middle" font-size="22" font-family="Arial" fill="#243746">Sensors</text>

  <rect x="650" y="105" width="120" height="170" rx="26" fill="#F8F9FA" stroke="{{COOLING_STROKE}}" stroke-width="{{COOLING_WIDTH}}"/>
  <text x="710" y="162" text-anchor="middle" font-size="20" font-family="Arial" fill="#243746">Cooling</text>
  <text x="710" y="188" text-anchor="middle" font-size="20" font-family="Arial" fill="#243746">System</text>

  <line x1="380" y1="195" x2="420" y2="145" stroke="#6C7A89" stroke-width="5"/>
  <line x1="530" y1="145" x2="566" y2="176" stroke="#6C7A89" stroke-width="5"/>
  <line x1="530" y1="250" x2="566" y2="215" stroke="#6C7A89" stroke-width="5"/>
  <line x1="650" y1="190" x2="770" y2="190" stroke="#6C7A89" stroke-width="5"/>

  <text x="450" y="356" text-anchor="middle" font-size="18" font-family="Arial" fill="#243746">
    Visualization only: color reflects whole-engine predicted RUL
  </text>
</svg>
